<svg width="72" height="60" viewBox="0 0 72 60" fill="none" xmlns="http://www.w3.org/2000/svg">
<rect width="72" height="60" rx="15" fill="url(#paint0_linear_665_2432)"/>
<g clip-path="url(#clip0_665_2432)">
<path d="M44.0806 27.1207L41.2852 38.6985H45.8206L48.728 26.6357L44.0806 27.1207Z" fill="white"/>
<path d="M59.0316 26.613C57.6798 26.4779 55.5706 26.9023 54.5284 27.7119C54.5044 27.2689 54.4247 26.9208 54.3318 26.5645L50.3175 27.0655C50.4771 28.2077 50.3198 29.4751 49.9256 31.1806L48.127 38.6994H52.6623L54.5187 31.0281C54.9733 30.3626 55.6957 29.9177 56.3064 29.9177C57.0619 29.9177 57.2464 30.4817 57.012 31.407L55.2692 38.6994H59.8047L61.751 30.7793C62.2149 28.6325 61.5311 26.863 59.0316 26.613Z" fill="white"/>
<path d="M49.4723 23.3679C49.4723 22.126 48.4079 21.1143 47.0466 21.1143C45.6603 21.1143 44.5215 22.1259 44.5215 23.3679C44.5215 24.6096 45.6356 25.6221 46.9722 25.6221C48.3581 25.6222 49.4723 24.6097 49.4723 23.3679Z" fill="#FFD300"/>
<path fill-rule="evenodd" clip-rule="evenodd" d="M38.5953 26.7613L37.1615 30.1395C36.631 31.4086 36.1658 32.6036 35.7575 33.7759L35.7017 26.7613H31.6089L28.2184 33.8348L28.5852 26.5996L24.0762 27.1725L24.9883 38.6994H28.9766C28.9766 38.6994 32.0018 32.48 32.2727 31.76L32.3131 38.6994H36.4051L43.1571 26.7613H38.5953Z" fill="white"/>
<path fill-rule="evenodd" clip-rule="evenodd" d="M19.1929 26.46C18.0153 26.46 17.1336 26.7745 16.6144 27.0694C17.3561 24.7262 17.5215 22.5634 17.5215 22.5634L17.5212 22.5637C17.553 22.2126 17.5604 21.795 17.5511 21.5195L12.7982 22.1084C12.8517 22.8854 12.7398 24.1136 12.1288 26.7378L9.835 36.4087C9.73086 36.8715 9.47027 37.7507 9.26172 38.0743C10.6954 38.5603 12.3376 38.9999 15.0482 38.9999C16.5342 38.9999 17.7071 38.722 18.9062 38.0047C20.9654 36.7788 22.2367 34.5712 22.7628 32.4292C23.7465 28.4251 22.1382 26.46 19.1929 26.46ZM17.9939 32.6377C17.4725 34.8585 16.7946 35.8533 15.6479 35.8533C15.1787 35.8533 14.7877 35.7374 14.5794 35.5756L15.8303 30.2776C16.065 30.0694 16.4821 29.6992 17.16 29.6992C18.1764 29.6991 18.5411 30.2775 17.9939 32.6377Z" fill="white"/>
</g>
<defs>
<linearGradient id="paint0_linear_665_2432" x1="36" y1="0" x2="67.0763" y2="60.5163" gradientUnits="userSpaceOnUse">
<stop stop-color="#313446"/>
<stop offset="1" stop-color="#070B1F"/>
</linearGradient>
<clipPath id="clip0_665_2432">
<rect width="53" height="18" fill="white" transform="translate(9 21)"/>
</clipPath>
</defs>
</svg>
