<svg width="53" height="34" viewBox="0 0 53 34" fill="none" xmlns="http://www.w3.org/2000/svg">
<rect width="53" height="34" rx="5" fill="#EBECF5" fill-opacity="0.65"/>
<path d="M31.3658 17.2865C31.8833 17.2981 32.4038 17.2629 32.9192 17.3047C33.4412 17.4051 33.5671 18.2195 33.1033 18.4862C32.7869 18.662 32.411 18.5517 32.0679 18.5827H31.3658V17.2865V17.2865ZM33.2185 15.8193C33.3334 16.2376 32.9422 16.6131 32.5513 16.5555H31.3658C31.3741 16.1611 31.3495 15.733 31.3778 15.3593C31.8528 15.3731 32.3321 15.3312 32.8043 15.3812C33.0071 15.4338 33.1769 15.6056 33.2185 15.8193V15.8193ZM36.0716 9.61667C36.0937 10.4154 36.0748 11.2564 36.0812 12.0714C36.0797 15.3848 36.0843 18.6981 36.0786 22.0116C36.0578 23.2534 34.99 24.3324 33.7934 24.3572C32.5957 24.3622 31.3978 24.358 30.1999 24.3593V19.3502C31.505 19.3433 32.8109 19.3643 34.1155 19.3397C34.7207 19.3005 35.3836 18.889 35.4118 18.2026C35.4831 17.5132 34.8524 17.0364 34.2537 16.9611C34.0235 16.9549 34.0302 16.8919 34.2537 16.8645C34.8247 16.7373 35.2732 16.1281 35.1052 15.5181C34.962 14.8765 34.2739 14.6281 33.7015 14.6294C32.5345 14.6212 31.3672 14.6282 30.2001 14.6259C30.2077 13.6907 30.1844 12.7546 30.2127 11.8201C30.3051 10.6007 31.3999 9.59517 32.5796 9.61699C33.7438 9.6168 34.9077 9.6168 36.0716 9.61676V9.61667Z" fill="url(#paint0_linear_546_1119)"/>
<path d="M17.0115 11.9464C17.0413 10.7066 18.1137 9.63641 19.3088 9.61829C20.5021 9.61451 21.6955 9.61775 22.8888 9.61665C22.8856 13.7648 22.8953 17.9133 22.8839 22.0612C22.838 23.286 21.7772 24.3357 20.5952 24.3574C19.3997 24.3619 18.204 24.358 17.0084 24.3593V19.1813C18.1697 19.464 19.3875 19.5844 20.5723 19.3968C21.2805 19.2794 22.0553 18.921 22.2951 18.1638C22.4715 17.5161 22.3722 16.8344 22.3985 16.1697V14.6258H20.3481C20.3389 15.6469 20.367 16.6697 20.3333 17.6895C20.278 18.3164 19.6757 18.7146 19.102 18.6934C18.3906 18.7011 16.9808 18.162 16.9808 18.162C16.9773 16.249 17.0015 13.8532 17.0115 11.9466V11.9464Z" fill="url(#paint1_linear_546_1119)"/>
<path d="M23.6535 15.2486C23.5456 15.2722 23.6318 14.8697 23.6042 14.717C23.6116 13.7517 23.5888 12.7854 23.6167 11.8207C23.7089 10.5962 24.8121 9.58814 25.9966 9.61681H29.4849C29.4817 13.7649 29.4914 17.9135 29.48 22.0614C29.434 23.2861 28.3732 24.3358 27.1912 24.3576C25.9956 24.3622 24.7998 24.3583 23.6042 24.3595V18.6863C24.4208 19.3768 25.5306 19.4842 26.548 19.4861C27.3149 19.4858 28.0774 19.364 28.8222 19.1817V18.1423C27.9828 18.5735 26.9961 18.8473 26.0657 18.5996C25.4166 18.4331 24.9455 17.7867 24.956 17.0963C24.8808 16.3784 25.2891 15.6205 25.9736 15.4071C26.8235 15.1329 27.7498 15.3426 28.5465 15.6991C28.7172 15.7912 28.8904 15.9055 28.8222 15.6114V14.7945C27.4898 14.4678 26.0718 14.3476 24.7332 14.703C24.3457 14.8156 23.9682 14.9865 23.6535 15.2487V15.2486Z" fill="url(#paint2_linear_546_1119)"/>
<defs>
<linearGradient id="paint0_linear_546_1119" x1="30.1597" y1="16.6728" x2="36.0441" y2="16.6728" gradientUnits="userSpaceOnUse">
<stop stop-color="#007B40"/>
<stop offset="1" stop-color="#55B330"/>
</linearGradient>
<linearGradient id="paint1_linear_546_1119" x1="16.8833" y1="17.1291" x2="22.7924" y2="17.1291" gradientUnits="userSpaceOnUse">
<stop stop-color="#1D2970"/>
<stop offset="1" stop-color="#006DBA"/>
</linearGradient>
<linearGradient id="paint2_linear_546_1119" x1="23.5955" y1="16.8157" x2="29.4838" y2="16.8157" gradientUnits="userSpaceOnUse">
<stop stop-color="#6E2B2F"/>
<stop offset="1" stop-color="#E30138"/>
</linearGradient>
</defs>
</svg>
